# xmcd
#
# Track frame offsets: 
#        150
#        11500
#        23192
#        37737
#        53910
#        68560
#        84128
#        98677
#        113213
#        127423
#        141921
#        155924
#        168951
#        182708
#        197340
#        211146
#        225411
#        239585
#        253212
#        265305
#        277836
#        291246
#        305497
#        316624
#        329888
#
# Disc length: 4576 seconds
#
# Revision: 0
# Processed by: cddbd v1.5.2PL0 Copyright (c) Steve Scherf et al.
# Submitted via: ExactAudioCopy v0.95b4
#
DISCID=6011de19
DTITLE=Bing Crosby - BING CROSBY BEST SELECTION [JAPAN SELECTION]
DYEAR=2009
DGENRE=Pop
TTITLE0=SWING ON A STAR
TTITLE1=TEA FOR TWO
TTITLE2=DANNY BOY
TTITLE3=BEGIN THE BEGUINE
TTITLE4=SWEET LEILANI
TTITLE5=AUTUMN LEAVES
TTITLE6=NIGHTS AND DAY
TTITLE7=I KISS YOUR HAND, MADAME
TTITLE8=NOW IS THE HOUR
TTITLE9=WHERE THE BLUE OF THE NIGHT
TTITLE10=LA VIE EN ROSE
TTITLE11=SEPTEMBER SONG
TTITLE12=MONA LISA
TTITLE13=TOO-RA-LOO-RA-LOO-RAL
TTITLE14=HARBOR LIGHTS
TTITLE15=SIBONEY
TTITLE16=BLUE HAWAII
TTITLE17=BEYOND THE REEF
TTITLE18=DEAR HEARTS AND GENTLE PEOPLE
TTITLE19=CHANGING PARTNERS
TTITLE20=IT'S BEEN A LONG, LONG TIME
TTITLE21=PENNIES FROM HEAVEN
TTITLE22=CLEMENTINE
TTITLE23=AROUND THE WORLD
TTITLE24=WHITE CHRISTMAS
EXTD=
EXTT0=
EXTT1=
EXTT2=
EXTT3=
EXTT4=
EXTT5=
EXTT6=
EXTT7=
EXTT8=
EXTT9=
EXTT10=
EXTT11=
EXTT12=
EXTT13=
EXTT14=
EXTT15=
EXTT16=
EXTT17=
EXTT18=
EXTT19=
EXTT20=
EXTT21=
EXTT22=
EXTT23=
EXTT24=
PLAYORDER=
